<svg width="32" height="32" viewBox="0 0 32 32" fill="none" xmlns="http://www.w3.org/2000/svg">
  <rect width="32" height="32" rx="7" fill="#2563eb"/>
  <!-- Kağıt -->
  <g transform="translate(3,4) rotate(-10, 10, 13)">
    <rect x="1" y="1" width="18" height="22" rx="2" fill="#e0e7ff" stroke="#93c5fd" stroke-width="1.2"/>
    <line x1="4" y1="7"  x2="16" y2="7"  stroke="#2563eb" stroke-width="1.4" stroke-linecap="round"/>
    <line x1="4" y1="12" x2="14" y2="12" stroke="#93c5fd" stroke-width="1.1" stroke-linecap="round"/>
    <line x1="4" y1="17" x2="16" y2="17" stroke="#93c5fd" stroke-width="1.1" stroke-linecap="round"/>
    <circle cx="5.5" cy="12" r="1.3" fill="#93c5fd"/>
    <circle cx="5.5" cy="17" r="1.3" fill="#1e40af"/>
  </g>
  <!-- Kalem -->
  <g transform="translate(17, 2) rotate(38, 4, 16)">
    <rect x="2" y="0"  width="5" height="3"  rx="1" fill="#fca5a5"/>
    <rect x="2" y="2.5" width="5" height="2" fill="#9ca3af"/>
    <rect x="2" y="4.5" width="5" height="16" rx="1" fill="#fbbf24"/>
    <polygon points="2,20.5 7,20.5 4.5,26" fill="#fde8c8"/>
    <polygon points="3.5,23 5.5,23 4.5,26" fill="#fff"/>
  </g>
</svg>
