<svg width="40" height="40" viewBox="0 0 40 40" fill="none" xmlns="http://www.w3.org/2000/svg">
  <!-- Kağıt (eğik -12 derece) -->
  <g transform="translate(2,3) rotate(-12, 13, 17)">
    <rect x="1" y="1" width="24" height="30" rx="3" fill="#e0e7ff" stroke="#2563eb" stroke-width="1.8"/>
    <line x1="5" y1="9"  x2="21" y2="9"  stroke="#2563eb" stroke-width="1.5" stroke-linecap="round"/>
    <line x1="5" y1="15" x2="19" y2="15" stroke="#93c5fd" stroke-width="1.2" stroke-linecap="round"/>
    <line x1="5" y1="20" x2="21" y2="20" stroke="#93c5fd" stroke-width="1.2" stroke-linecap="round"/>
    <line x1="5" y1="25" x2="16" y2="25" stroke="#93c5fd" stroke-width="1.2" stroke-linecap="round"/>
    <circle cx="7" cy="15" r="1.7" fill="#93c5fd"/>
    <circle cx="7" cy="20" r="1.7" fill="#93c5fd"/>
    <circle cx="7" cy="25" r="1.7" fill="#2563eb"/>
  </g>
  <!-- Kalem (yaslanmış) -->
  <g transform="translate(21, 1) rotate(38, 6, 22)">
    <rect x="3" y="0"  width="6" height="4"  rx="1.5" fill="#fca5a5"/>
    <rect x="3" y="3.5" width="6" height="2.5" fill="#9ca3af"/>
    <rect x="3" y="6"  width="6" height="22" rx="1"   fill="#fbbf24"/>
    <line x1="5" y1="6" x2="5" y2="28" stroke="#f59e0b" stroke-width="0.8"/>
    <polygon points="3,28 9,28 6,35" fill="#fde8c8"/>
    <polygon points="5,31 7,31 6,35" fill="#1e293b"/>
  </g>
</svg>
